<?xml version="1.0" encoding="UTF-8" standalone="no"?>
<svg
   width="2299.3972"
   height="437.25146"
   viewBox="0 0 177.28905 33.713139"
   version="1.1"
   id="svg8"
   sodipodi:docname="maxmara-1.svg"
   inkscape:version="1.1.1 (3bf5ae0d25, 2021-09-20)"
   xmlns:inkscape="http://www.inkscape.org/namespaces/inkscape"
   xmlns:sodipodi="http://sodipodi.sourceforge.net/DTD/sodipodi-0.dtd"
   xmlns="http://www.w3.org/2000/svg"
   xmlns:svg="http://www.w3.org/2000/svg">
  <defs
     id="defs12" />
  <sodipodi:namedview
     id="namedview10"
     pagecolor="#ffffff"
     bordercolor="#999999"
     borderopacity="1"
     inkscape:pageshadow="0"
     inkscape:pageopacity="0"
     inkscape:pagecheckerboard="0"
     showgrid="false"
     fit-margin-top="10"
     fit-margin-left="10"
     fit-margin-right="10"
     fit-margin-bottom="10"
     lock-margins="false"
     inkscape:zoom="0.40672782"
     inkscape:cx="1171.5451"
     inkscape:cy="716.6955"
     inkscape:window-width="1920"
     inkscape:window-height="1001"
     inkscape:window-x="-9"
     inkscape:window-y="-9"
     inkscape:window-maximized="1"
     inkscape:current-layer="g6" />
  <g
     fill-rule="evenodd"
     clip-rule="evenodd"
     id="g6"
     transform="translate(91.855024,0.77102404)">
    <path
       d="m -54.558,3.83 c 0,-1.389 0.718,-2.92 4.213,-2.92 V 0 h -9.527 L -70.452,24.176 -81.509,0 h -9.479 v 0.91 c 3.83,0 4.548,1.532 4.548,2.92 v 24.031 c 0,1.389 -0.719,2.921 -4.644,2.921 v 0.909 h 11.393 v -0.909 c -3.925,0 -4.643,-1.532 -4.643,-2.921 V 5.553 l 12.016,26.138 h 0.67 L -59.392,4.452 v 23.409 c 0,1.389 -0.719,2.921 -4.213,2.921 v 0.909 h 13.308 v -0.909 c -3.495,0 -4.212,-1.532 -4.212,-2.921 z m 20.011,14.074 c 0,-5.889 -1.579,-8.138 -6.845,-8.138 -3.016,0 -6.032,0.766 -7.612,3.59 -1.005,1.819 -0.574,3.734 1.628,3.734 1.102,0 2.106,-1.006 2.106,-2.107 0,-1.244 -0.239,-2.202 0.048,-2.776 0.479,-0.909 2.155,-1.34 3.112,-1.34 3.016,0 3.494,1.867 3.494,6.894 -4.068,1.676 -11.776,3.639 -11.776,9.383 a 4.996,4.996 0 0 0 5.026,5.027 c 2.106,0 4.787,-1.677 6.989,-3.639 0.048,1.818 0.958,3.639 3.447,3.639 1.34,0 3.208,-1.677 3.925,-2.538 v -1.244 c -1.1,0.766 -1.962,1.101 -2.537,1.101 -0.67,0 -1.005,-0.574 -1.005,-1.484 z m -4.069,9.335 c -0.478,1.054 -3.255,2.106 -4.212,2.106 -2.297,0 -3.351,-1.819 -3.351,-3.926 0,-4.308 4.547,-5.122 7.563,-6.366 z m 18.826,-8.521 3.687,-5.17 c 0.958,-1.388 2.394,-2.585 4.212,-2.633 v -0.67 h -7.564 v 0.67 c 0.719,0.048 1.916,0.191 1.916,1.149 0,1.197 -2.537,4.165 -3.208,5.218 -0.526,-0.814 -2.872,-4.356 -2.872,-5.075 0,-0.623 0.383,-1.245 2.059,-1.292 v -0.67 h -9.91 v 0.67 c 3.063,0.144 3.303,1.724 4.452,3.447 l 4.117,6.271 -5.122,7.42 c -1.245,1.771 -2.106,2.969 -3.83,2.969 v 0.67 h 6.941 v -0.67 c -2.441,0 -2.441,-0.527 -0.622,-3.351 l 3.447,-5.41 4.979,7.085 c 0.766,1.101 -0.479,1.58 -2.251,1.676 v 0.67 h 9.623 v -0.67 c -1.628,0 -3.017,-1.437 -4.261,-3.399 z M 26.953,3.83 c 0,-1.389 0.717,-2.92 4.211,-2.92 V 0 H 21.639 L 11.059,24.176 0,0 h -9.479 v 0.91 c 3.83,0 4.548,1.532 4.548,2.92 v 24.031 c 0,1.389 -0.718,2.921 -4.644,2.921 v 0.909 H 1.818 v -0.909 c -3.924,0 -4.643,-1.532 -4.643,-2.921 V 5.553 L 9.191,31.691 h 0.67 L 22.117,4.452 v 23.409 c 0,1.389 -0.719,2.921 -4.213,2.921 v 0.909 H 31.213 V 30.782 C 27.719,30.782 27,29.25 27,27.861 Z m 20.01,14.074 c 0,-5.889 -1.578,-8.138 -6.846,-8.138 -3.016,0 -6.031,0.766 -7.611,3.59 -1.006,1.819 -0.576,3.734 1.627,3.734 1.102,0 2.107,-1.006 2.107,-2.107 0,-1.244 -0.24,-2.202 0.047,-2.776 0.479,-0.909 2.154,-1.34 3.113,-1.34 3.016,0 3.494,1.867 3.494,6.894 -4.07,1.676 -11.777,3.639 -11.777,9.383 a 4.997,4.997 0 0 0 5.027,5.027 c 2.105,0 4.785,-1.677 6.988,-3.639 0.049,1.818 0.957,3.639 3.447,3.639 1.34,0 3.207,-1.677 3.926,-2.538 v -1.244 c -1.102,0.766 -1.963,1.101 -2.537,1.101 -0.67,0 -1.006,-0.574 -1.006,-1.484 V 17.904 Z m -4.069,9.335 c -0.479,1.054 -3.256,2.106 -4.213,2.106 -2.299,0 -3.352,-1.819 -3.352,-3.926 0,-4.308 4.547,-5.122 7.564,-6.366 v 8.186 z m 11.166,0.622 c 0,2.106 -0.717,2.969 -3.59,3.16 v 0.67 h 11.25 v -0.67 C 58.847,30.83 58.13,29.967 58.13,27.861 V 16.468 c 0,-1.388 2.01,-3.733 2.967,-3.733 1.197,0 1.533,1.675 3.207,1.675 1.006,0 1.82,-0.479 1.963,-1.484 0.289,-2.059 -0.812,-3.16 -2.68,-3.16 -2.393,0 -4.5,2.681 -5.457,4.309 V 9.766 l -7.66,2.538 v 0.766 c 2.873,-0.813 3.59,-0.24 3.59,4.356 z m 27.061,-9.957 c 0,-5.889 -1.58,-8.138 -6.846,-8.138 -3.016,0 -6.031,0.766 -7.611,3.59 -1.006,1.819 -0.574,3.734 1.627,3.734 1.102,0 2.107,-1.006 2.107,-2.107 0,-1.244 -0.24,-2.202 0.047,-2.776 0.479,-0.909 2.154,-1.34 3.113,-1.34 3.016,0 3.494,1.867 3.494,6.894 -4.07,1.676 -11.777,3.639 -11.777,9.383 a 4.997,4.997 0 0 0 5.027,5.027 c 2.105,0 4.787,-1.677 6.988,-3.639 0.049,1.818 0.957,3.639 3.447,3.639 1.34,0 3.207,-1.677 3.926,-2.538 v -1.244 c -1.102,0.766 -1.963,1.101 -2.537,1.101 -0.67,0 -1.006,-0.574 -1.006,-1.484 V 17.904 Z m -4.068,9.335 c -0.479,1.054 -3.256,2.106 -4.213,2.106 -2.299,0 -3.352,-1.819 -3.352,-3.926 0,-4.308 4.549,-5.122 7.564,-6.366 v 8.186 z"
       id="path4" />
  </g>
</svg>
